# Blender v2.78 (sub 0) OBJ File: ''
# www.blender.org
mtllib trzySciany.mtl
o Cube
v 1.000000 -1.000000 -1.000000
v 1.000000 -1.000000 1.000000
v -1.000000 -1.000000 1.000000
v -1.000000 -1.000000 -1.000000
v 0.999999 1.000000 1.000001
v -1.000000 1.000000 1.000000
v -1.000000 1.000000 -1.000000
vt 1.0000 0.0000
vt 0.0000 1.0000
vt 0.0000 0.0000
vt 1.0000 1.0000
vt 1.0000 0.0000
vt 1.0000 1.0000
vt 0.0000 1.0000
vt 0.0000 0.0000
vt 0.0000 0.0000
vt 1.0000 1.0000
vt 1.0000 0.0000
vn 0.0000 -1.0000 0.0000
vn -0.0000 0.0000 1.0000
vn -1.0000 -0.0000 -0.0000
usemtl Material
s off
f 2/1/1 4/2/1 1/3/1
f 2/1/1 3/4/1 4/2/1
f 5/5/2 6/6/2 3/7/2
f 5/5/2 3/7/2 2/8/2
f 3/9/3 7/10/3 4/2/3
f 3/9/3 6/11/3 7/10/3
